<?xml version="1.0" encoding="UTF-8"?>
<!DOCTYPE svg PUBLIC "-//W3C//DTD SVG 1.1//EN" "http://www.w3.org/Graphics/SVG/1.1/DTD/svg11.dtd">
<svg xmlns="http://www.w3.org/2000/svg" version="1.1" width="800px" height="600px" style="shape-rendering:geometricPrecision; text-rendering:geometricPrecision; image-rendering:optimizeQuality; fill-rule:evenodd; clip-rule:evenodd" xmlns:xlink="http://www.w3.org/1999/xlink">
<g><path style="opacity:1" fill="#aedcfe" d="M -0.5,-0.5 C 266.167,-0.5 532.833,-0.5 799.5,-0.5C 799.5,199.5 799.5,399.5 799.5,599.5C 532.833,599.5 266.167,599.5 -0.5,599.5C -0.5,399.5 -0.5,199.5 -0.5,-0.5 Z"/></g>
<g><path style="opacity:1" fill="#d62dfa" d="M 336.5,41.5 C 337.774,42.1894 337.774,43.0228 336.5,44C 332.066,46.2745 328.066,49.1078 324.5,52.5C 322.955,53.4519 321.288,53.7852 319.5,53.5C 312.79,50.5934 309.456,45.4267 309.5,38C 310.13,29.7391 313.463,22.7391 319.5,17C 324.023,13.1301 329.023,10.1301 334.5,8C 339.5,7.33333 344.5,7.33333 349.5,8C 357.828,10.163 360.828,15.3297 358.5,23.5C 357.127,23.6567 355.793,23.49 354.5,23C 349.888,17.1942 344.221,15.8609 337.5,19C 327.339,22.189 322.172,29.0224 322,39.5C 323.414,41.4982 325.414,42.4982 328,42.5C 330.848,42.2022 333.681,41.8688 336.5,41.5 Z"/></g>
<g><path style="opacity:1" fill="#b747f7" d="M 399.5,31.5 C 399.665,34.8499 399.498,38.1832 399,41.5C 398.667,40.1667 398.333,38.8333 398,37.5C 397.71,39.0441 397.044,40.3774 396,41.5C 395.814,38.9644 395.314,36.631 394.5,34.5C 393.364,30.3987 391.031,29.5654 387.5,32C 383.423,35.9853 381.423,40.8187 381.5,46.5C 381.024,49.4024 379.691,51.9024 377.5,54C 375.934,54.2997 374.601,53.7997 373.5,52.5C 372.347,46.3471 372.18,40.0137 373,33.5C 373.688,29.7907 375.188,26.4573 377.5,23.5C 378.768,22.5721 380.101,22.4054 381.5,23C 382.103,24.8254 382.77,26.6587 383.5,28.5C 390.128,22.8236 395.461,23.8236 399.5,31.5 Z"/></g>
<g><path style="opacity:1" fill="#afd4fe" d="M 394.5,34.5 C 394.646,41.8976 391.98,48.0642 386.5,53C 384.975,54.0086 383.308,54.5086 381.5,54.5C 381.5,51.8333 381.5,49.1667 381.5,46.5C 381.423,40.8187 383.423,35.9853 387.5,32C 391.031,29.5654 393.364,30.3987 394.5,34.5 Z"/></g>
<g><path style="opacity:1" fill="#a155f4" d="M 428.5,54.5 C 428.565,54.9382 428.399,55.2716 428,55.5C 427.667,54.8333 427.333,54.1667 427,53.5C 425.599,55.1922 423.766,55.8588 421.5,55.5C 421.821,50.3054 421.487,45.3054 420.5,40.5C 418.46,37.8661 416.293,37.8661 414,40.5C 412.711,46.0884 412.211,51.7551 412.5,57.5C 412.627,63.3822 409.961,65.3822 404.5,63.5C 400.907,52.424 403.573,42.924 412.5,35C 413.729,34.2189 415.062,33.7189 416.5,33.5C 418.155,34.228 419.821,34.3947 421.5,34C 421.895,28.9082 424.395,27.0748 429,28.5C 428.918,37.1522 428.752,45.8189 428.5,54.5 Z"/></g>
<g><path style="opacity:1" fill="#abd1fd" d="M 479.5,39.5 C 479.306,45.2398 476.639,49.2398 471.5,51.5C 471.192,46.6292 472.025,41.9626 474,37.5C 476.528,36.0659 478.362,36.7325 479.5,39.5 Z"/></g>
<g><path style="opacity:1" fill="#a955f5" d="M 399.5,31.5 C 402.229,45.798 396.563,55.1314 382.5,59.5C 383.19,65.8097 383.524,72.143 383.5,78.5C 381.549,78.7733 380.049,78.1066 379,76.5C 375.669,68.8394 373.835,60.8394 373.5,52.5C 374.601,53.7997 375.934,54.2997 377.5,54C 379.691,51.9024 381.024,49.4024 381.5,46.5C 381.5,49.1667 381.5,51.8333 381.5,54.5C 383.308,54.5086 384.975,54.0086 386.5,53C 391.98,48.0642 394.646,41.8976 394.5,34.5C 395.314,36.631 395.814,38.9644 396,41.5C 397.044,40.3774 397.71,39.0441 398,37.5C 398.333,38.8333 398.667,40.1667 399,41.5C 399.498,38.1832 399.665,34.8499 399.5,31.5 Z"/></g>
<g><path style="opacity:1" fill="#aed5fe" d="M 420.5,40.5 C 421.01,46.072 420.177,51.4053 418,56.5C 416.292,61.0031 414.458,61.3365 412.5,57.5C 412.211,51.7551 412.711,46.0884 414,40.5C 416.293,37.8661 418.46,37.8661 420.5,40.5 Z"/></g>
<g><path style="opacity:1" fill="#c23ef8" d="M 368.5,44.5 C 368.663,46.8568 368.497,49.1902 368,51.5C 367.667,51.1667 367.333,50.8333 367,50.5C 365.846,51.7433 364.512,52.7433 363,53.5C 362.878,51.563 362.045,50.2297 360.5,49.5C 360.167,48.5 359.5,47.8333 358.5,47.5C 355.373,46.1851 352.373,46.5185 349.5,48.5C 343,50.9439 336.333,53.1106 329.5,55C 325.852,55.8371 322.519,55.3371 319.5,53.5C 321.288,53.7852 322.955,53.4519 324.5,52.5C 328.066,49.1078 332.066,46.2745 336.5,44C 337.774,43.0228 337.774,42.1894 336.5,41.5C 338.224,39.3106 340.558,38.1439 343.5,38C 349.167,37.3333 354.833,37.3333 360.5,38C 363.936,39.2739 366.603,41.4406 368.5,44.5 Z"/></g>
<g><path style="opacity:1" fill="#b5a8fc" d="M 358.5,47.5 C 355.482,47.7038 352.482,48.0371 349.5,48.5C 352.373,46.5185 355.373,46.1851 358.5,47.5 Z"/></g>
<g><path style="opacity:1" fill="#a2aaf9" d="M 448.5,40.5 C 447.725,45.7968 447.392,51.1301 447.5,56.5C 447.167,56.5 446.833,56.5 446.5,56.5C 446.334,52.1539 446.501,47.8206 447,43.5C 447.232,42.2625 447.732,41.2625 448.5,40.5 Z"/></g>
<g><path style="opacity:1" fill="#8175f0" d="M 482.5,37.5 C 483.629,39.6282 483.796,41.9615 483,44.5C 480.203,48.9616 477.036,53.1283 473.5,57C 474.058,59.058 475.391,60.2247 477.5,60.5C 480.731,59.2728 483.731,57.6061 486.5,55.5C 487.583,56.365 487.749,57.365 487,58.5C 481.775,65.7299 475.275,67.2299 467.5,63C 465.768,61.0281 464.435,58.8614 463.5,56.5C 466.942,56.055 469.609,54.3883 471.5,51.5C 476.639,49.2398 479.306,45.2398 479.5,39.5C 480.161,40.7175 480.828,42.0508 481.5,43.5C 482.466,41.604 482.799,39.604 482.5,37.5 Z"/></g>
<g><path style="opacity:1" fill="#9565f3" d="M 448.5,40.5 C 447.732,41.2625 447.232,42.2625 447,43.5C 446.501,47.8206 446.334,52.1539 446.5,56.5C 445.732,59.5616 443.732,61.2283 440.5,61.5C 439.524,60.1851 438.524,58.8518 437.5,57.5C 432.056,65.5646 427.056,65.2312 422.5,56.5C 421.234,60.5445 419.234,64.2112 416.5,67.5C 413.24,70.0594 409.906,70.0594 406.5,67.5C 405.295,66.4231 404.628,65.0898 404.5,63.5C 409.961,65.3822 412.627,63.3822 412.5,57.5C 414.458,61.3365 416.292,61.0031 418,56.5C 420.177,51.4053 421.01,46.072 420.5,40.5C 421.487,45.3054 421.821,50.3054 421.5,55.5C 423.766,55.8588 425.599,55.1922 427,53.5C 427.333,54.1667 427.667,54.8333 428,55.5C 428.399,55.2716 428.565,54.9382 428.5,54.5C 429.421,55.981 430.588,57.3144 432,58.5C 435.817,54.3165 437.483,49.3165 437,43.5C 438.527,39.6138 440.694,36.1138 443.5,33C 448.114,30.5977 452.281,31.0977 456,34.5C 456.494,36.1341 456.66,37.8008 456.5,39.5C 454.4,39.5228 452.567,38.8561 451,37.5C 449.251,37.7483 448.418,38.7483 448.5,40.5 Z"/></g>
<g><path style="opacity:1" fill="#8a6bf1" d="M 482.5,37.5 C 482.799,39.604 482.466,41.604 481.5,43.5C 480.828,42.0508 480.161,40.7175 479.5,39.5C 478.362,36.7325 476.528,36.0659 474,37.5C 472.025,41.9626 471.192,46.6292 471.5,51.5C 469.609,54.3883 466.942,56.055 463.5,56.5C 463.189,55.5222 462.522,54.8555 461.5,54.5C 457.56,61.6362 451.56,64.8029 443.5,64C 442.058,63.6232 441.058,62.7899 440.5,61.5C 443.732,61.2283 445.732,59.5616 446.5,56.5C 446.833,56.5 447.167,56.5 447.5,56.5C 451.036,59.1695 454.203,58.5028 457,54.5C 457.953,52.5448 459.287,50.8782 461,49.5C 460.956,40.0725 465.123,33.4058 473.5,29.5C 478.44,30.1116 481.44,32.7782 482.5,37.5 Z"/></g>
<g><path style="opacity:1" fill="#b04ef6" d="M 368.5,44.5 C 371.012,55.9162 367.345,65.0828 357.5,72C 352.909,75.2477 347.909,77.4144 342.5,78.5C 338.762,78.4209 335.428,77.2542 332.5,75C 331.62,73.6439 331.286,72.1439 331.5,70.5C 334.285,71.3055 337.119,71.9722 340,72.5C 343.162,71.5103 346.329,70.3437 349.5,69C 352.333,66.1667 355.167,63.3333 358,60.5C 359.904,57.0769 360.737,53.4102 360.5,49.5C 362.045,50.2297 362.878,51.563 363,53.5C 364.512,52.7433 365.846,51.7433 367,50.5C 367.333,50.8333 367.667,51.1667 368,51.5C 368.497,49.1902 368.663,46.8568 368.5,44.5 Z"/></g>
<g><path style="opacity:1" fill="#8071f0" d="M 332.5,165.5 C 331.207,166.842 330.374,168.509 330,170.5C 326.893,172.965 323.726,175.298 320.5,177.5C 318.577,163.231 322.244,150.731 331.5,140C 334.634,137.848 337.968,136.182 341.5,135C 347.962,133.514 353.795,134.681 359,138.5C 359.743,140.441 359.576,142.274 358.5,144C 342.176,141.819 333.509,148.986 332.5,165.5 Z"/></g>
<g><path style="opacity:1" fill="#52a2ec" d="M 417.5,167.5 C 421.161,167.35 422.161,168.85 420.5,172C 416.707,172.487 415.707,170.987 417.5,167.5 Z"/></g>
<g><path style="opacity:1" fill="#34b7e5" d="M 484.5,171.5 C 483.781,173.764 483.448,176.097 483.5,178.5C 482.448,178.649 481.448,178.483 480.5,178C 479.901,176.378 479.234,174.878 478.5,173.5C 477.749,172.427 476.749,172.26 475.5,173C 466.91,180.543 463.91,189.876 466.5,201C 463.472,202.14 461.305,201.306 460,198.5C 457.625,188.628 456.958,178.628 458,168.5C 459.133,166.789 460.633,166.289 462.5,167C 465.688,168.934 467.188,171.768 467,175.5C 470.147,170.193 474.647,167.359 480.5,167C 482.751,167.748 484.084,169.248 484.5,171.5 Z"/></g>
<g><path style="opacity:1" fill="#45a9e8" d="M 452.5,172.5 C 452.823,176.226 452.489,179.893 451.5,183.5C 450.818,182.757 450.151,182.091 449.5,181.5C 449.56,176.289 447.893,171.789 444.5,168C 437.326,166.342 433.992,169.175 434.5,176.5C 436.735,176.205 438.735,176.539 440.5,177.5C 440.5,178.833 440.5,180.167 440.5,181.5C 438.692,181.491 437.025,181.991 435.5,183C 434.636,184.697 433.303,185.863 431.5,186.5C 430.702,186.043 430.369,185.376 430.5,184.5C 431.616,181.663 431.116,178.996 429,176.5C 428.333,173.833 428.333,171.167 429,168.5C 435.302,160.086 442.302,159.42 450,166.5C 451.122,168.407 451.955,170.407 452.5,172.5 Z"/></g>
<g><path style="opacity:1" fill="#a8dafd" d="M 449.5,181.5 C 447.372,182.629 445.039,182.796 442.5,182C 441.901,180.378 441.234,178.878 440.5,177.5C 438.735,176.539 436.735,176.205 434.5,176.5C 433.992,169.175 437.326,166.342 444.5,168C 447.893,171.789 449.56,176.289 449.5,181.5 Z"/></g>
<g><path style="opacity:1" fill="#608eeb" d="M 365.5,182.5 C 364.073,184.148 363.24,186.148 363,188.5C 358.978,193.062 356.811,192.396 356.5,186.5C 356.499,181.332 358.166,176.832 361.5,173C 363.112,172.28 364.612,172.446 366,173.5C 366.634,176.555 366.468,179.555 365.5,182.5 Z"/></g>
<g><path style="opacity:1" fill="#5497e9" d="M 393.5,186.5 C 394.978,186.238 396.311,186.571 397.5,187.5C 394.65,189.979 391.316,190.979 387.5,190.5C 383.922,188.098 382.755,184.765 384,180.5C 386.449,170.703 392.616,166.537 402.5,168C 406.674,169.508 407.341,171.841 404.5,175C 397.389,173.874 393.056,176.707 391.5,183.5C 391.64,185.03 392.307,186.03 393.5,186.5 Z"/></g>
<g><path style="opacity:1" fill="#6a84ed" d="M 332.5,165.5 C 332.5,170.833 332.5,176.167 332.5,181.5C 338.175,181.465 343.675,180.465 349,178.5C 352.594,177.717 354.427,179.05 354.5,182.5C 347.944,184.312 341.278,185.812 334.5,187C 333.987,189.718 333.987,192.551 334.5,195.5C 333.967,200.938 330.967,203.938 325.5,204.5C 325.006,200.194 324.006,196.028 322.5,192C 319.206,192.365 315.873,192.865 312.5,193.5C 312.343,192.127 312.51,190.793 313,189.5C 315.333,188.167 317.667,186.833 320,185.5C 320.497,182.854 320.664,180.187 320.5,177.5C 323.726,175.298 326.893,172.965 330,170.5C 330.374,168.509 331.207,166.842 332.5,165.5 Z"/></g>
<g><path style="opacity:1" fill="#5998ea" d="M 356.5,186.5 C 356.811,192.396 358.978,193.062 363,188.5C 363.24,186.148 364.073,184.148 365.5,182.5C 364.104,196.408 365.937,197.408 371,185.5C 372,181.5 373,177.5 374,173.5C 375.396,171.473 377.062,171.14 379,172.5C 379.467,177.675 379.3,182.842 378.5,188C 379.234,193.499 379.9,198.999 380.5,204.5C 379.178,204.67 378.011,204.337 377,203.5C 375.059,199.952 373.393,196.286 372,192.5C 370.765,197.232 367.932,200.565 363.5,202.5C 359.152,201.185 356.652,198.185 356,193.5C 355.204,190.961 355.371,188.628 356.5,186.5 Z"/></g>
<g><path style="opacity:1" fill="#29c3e3" d="M 484.5,171.5 C 486.686,183.64 485.353,195.474 480.5,207C 479.216,207.684 478.049,207.517 477,206.5C 476.833,205 476.667,203.5 476.5,202C 477.796,192.541 478.463,183.041 478.5,173.5C 479.234,174.878 479.901,176.378 480.5,178C 481.448,178.483 482.448,178.649 483.5,178.5C 483.448,176.097 483.781,173.764 484.5,171.5 Z"/></g>
<g><path style="opacity:1" fill="#45a7e7" d="M 387.5,190.5 C 391.316,190.979 394.65,189.979 397.5,187.5C 396.311,186.571 394.978,186.238 393.5,186.5C 410.905,181.069 415.405,186.402 407,202.5C 401.278,208.657 394.944,209.657 388,205.5C 387.517,204.552 387.351,203.552 387.5,202.5C 389.787,202.724 391.953,203.391 394,204.5C 402.162,202.26 406.328,197.093 406.5,189C 405.667,188.833 404.833,188.667 404,188.5C 399.877,189.93 395.711,191.263 391.5,192.5C 389.829,192.332 388.496,191.665 387.5,190.5 Z"/></g>
<g><path style="opacity:1" fill="#41ace7" d="M 417.5,177.5 C 419.722,177.178 421.556,177.845 423,179.5C 422.64,186.848 422.807,194.181 423.5,201.5C 423.749,208.025 421.582,209.025 417,204.5C 414.529,197.043 413.862,189.376 415,181.5C 415.662,180.016 416.496,178.683 417.5,177.5 Z"/></g>
<g><path style="opacity:1" fill="#37b5e5" d="M 452.5,172.5 C 455.268,186.939 452.268,200.105 443.5,212C 437.901,214.622 433.735,213.122 431,207.5C 427.963,199.745 427.796,192.078 430.5,184.5C 430.369,185.376 430.702,186.043 431.5,186.5C 433.303,185.863 434.636,184.697 435.5,183C 437.025,181.991 438.692,181.491 440.5,181.5C 440.5,180.167 440.5,178.833 440.5,177.5C 441.234,178.878 441.901,180.378 442.5,182C 445.039,182.796 447.372,182.629 449.5,181.5C 450.151,182.091 450.818,182.757 451.5,183.5C 452.489,179.893 452.823,176.226 452.5,172.5 Z"/></g>
<g><path style="opacity:1" fill="#acdcfe" d="M 439.5,185.5 C 442.524,186.342 445.524,187.342 448.5,188.5C 447.18,192.114 446.013,195.78 445,199.5C 444.027,201.64 442.527,203.307 440.5,204.5C 438.263,198.274 437.929,191.941 439.5,185.5 Z"/></g>
<g><path style="opacity:1" fill="#5793e9" d="M 334.5,195.5 C 336.304,204.701 337.804,214.035 339,223.5C 336.667,224.833 334.333,224.833 332,223.5C 329.523,217.235 327.356,210.901 325.5,204.5C 330.967,203.938 333.967,200.938 334.5,195.5 Z"/></g>
<g><path style="opacity:1" fill="#7638c2" d="M 59.5,283.5 C 167.833,283.5 276.167,283.5 384.5,283.5C 384.5,299.833 384.5,316.167 384.5,332.5C 276.167,332.5 167.833,332.5 59.5,332.5C 59.5,316.167 59.5,299.833 59.5,283.5 Z"/></g>
<g><path style="opacity:1" fill="#f7f3fb" d="M 83.5,293.5 C 89.7809,292.123 93.4476,294.457 94.5,300.5C 91.6354,300.945 89.1354,300.278 87,298.5C 85.7308,299.905 85.2308,301.571 85.5,303.5C 93.3296,302.495 96.4963,305.828 95,313.5C 90.3529,319.632 85.3529,319.965 80,314.5C 78.4453,309.618 78.112,304.618 79,299.5C 80.332,297.34 81.832,295.34 83.5,293.5 Z"/></g>
<g><path style="opacity:1" fill="#faf8fd" d="M 111.5,293.5 C 110.874,300.584 111.541,307.25 113.5,313.5C 113.5,314.833 113.5,316.167 113.5,317.5C 110.167,317.5 106.833,317.5 103.5,317.5C 104.937,312.972 105.604,308.306 105.5,303.5C 104.5,303.5 103.5,303.5 102.5,303.5C 102.343,302.127 102.51,300.793 103,299.5C 104.713,298.122 106.047,296.455 107,294.5C 108.356,293.62 109.856,293.286 111.5,293.5 Z"/></g>
<g><path style="opacity:1" fill="#bc9de1" d="M 111.5,293.5 C 112.201,300.067 112.868,306.733 113.5,313.5C 111.541,307.25 110.874,300.584 111.5,293.5 Z"/></g>
<g><path style="opacity:1" fill="#f6f1fb" d="M 128.5,299.5 C 126.621,300.341 124.621,300.675 122.5,300.5C 122.5,299.5 122.5,298.5 122.5,297.5C 125.977,293.18 130.31,292.347 135.5,295C 138.343,298.619 138.01,301.952 134.5,305C 139.398,308.522 139.731,312.522 135.5,317C 127.134,320.914 122.467,318.414 121.5,309.5C 123.5,309.5 125.5,309.5 127.5,309.5C 127.222,311.346 127.889,312.68 129.5,313.5C 131.395,309.857 130.395,307.857 126.5,307.5C 126.5,305.833 126.5,304.167 126.5,302.5C 127.833,302.5 129.167,302.5 130.5,302.5C 130.762,301.022 130.429,299.689 129.5,298.5C 128.893,298.624 128.56,298.957 128.5,299.5 Z"/></g>
<g><path style="opacity:1" fill="#f8f4fb" d="M 188.5,300.5 C 185.918,300.975 183.918,300.308 182.5,298.5C 182.916,296.248 184.249,294.748 186.5,294C 196.076,292.39 199.076,295.89 195.5,304.5C 200.713,311.764 199.047,316.43 190.5,318.5C 184.491,318.491 181.491,315.491 181.5,309.5C 183.833,309.5 186.167,309.5 188.5,309.5C 188.238,310.978 188.571,312.311 189.5,313.5C 191.384,312.307 191.884,310.641 191,308.5C 189.989,307.663 188.822,307.33 187.5,307.5C 187.5,305.833 187.5,304.167 187.5,302.5C 191.223,302.642 192.056,301.309 190,298.5C 189.283,299.044 188.783,299.711 188.5,300.5 Z"/></g>
<g><path style="opacity:1" fill="#f8f4fb" d="M 207.5,293.5 C 216.867,291.728 220.7,295.394 219,304.5C 217.167,307.667 214.667,310.167 211.5,312C 214.451,311.601 217.451,311.101 220.5,310.5C 220.007,312.806 219.674,315.139 219.5,317.5C 213.833,317.5 208.167,317.5 202.5,317.5C 202.34,315.801 202.506,314.134 203,312.5C 206.667,310.167 209.667,307.167 212,303.5C 212.774,301.597 212.44,299.93 211,298.5C 209.812,299.563 209.312,300.897 209.5,302.5C 207.5,302.5 205.5,302.5 203.5,302.5C 203.34,300.801 203.506,299.134 204,297.5C 205.376,296.295 206.542,294.962 207.5,293.5 Z"/></g>
<g><path style="opacity:1" fill="#f8f4fb" d="M 231.5,300.5 C 228.918,300.975 226.918,300.308 225.5,298.5C 225.916,296.248 227.249,294.748 229.5,294C 239.076,292.39 242.076,295.89 238.5,304.5C 243.713,311.764 242.047,316.43 233.5,318.5C 227.491,318.491 224.491,315.491 224.5,309.5C 226.833,309.5 229.167,309.5 231.5,309.5C 231.238,310.978 231.571,312.311 232.5,313.5C 234.384,312.307 234.884,310.641 234,308.5C 232.989,307.663 231.822,307.33 230.5,307.5C 230.5,305.833 230.5,304.167 230.5,302.5C 234.223,302.642 235.056,301.309 233,298.5C 232.283,299.044 231.783,299.711 231.5,300.5 Z"/></g>
<g><path style="opacity:1" fill="#f7f3fb" d="M 296.5,310.5 C 298.167,310.5 299.833,310.5 301.5,310.5C 301.5,312.833 301.5,315.167 301.5,317.5C 295.833,317.5 290.167,317.5 284.5,317.5C 284.023,313.134 285.856,310.134 290,308.5C 291,306.833 292,305.167 293,303.5C 293.798,301.741 293.631,300.074 292.5,298.5C 291.571,299.689 291.238,301.022 291.5,302.5C 289.167,302.5 286.833,302.5 284.5,302.5C 285.776,294.025 290.443,291.525 298.5,295C 300.594,296.255 301.594,298.088 301.5,300.5C 300.885,304.397 299.218,307.73 296.5,310.5 Z"/></g>
<g><path style="opacity:1" fill="#f8f4fb" d="M 310.5,293.5 C 315.126,292.7 318.96,294.034 322,297.5C 322.667,302.5 322.667,307.5 322,312.5C 319.983,317.924 316.15,319.758 310.5,318C 307.976,316.117 306.642,313.617 306.5,310.5C 308.527,310.338 310.527,310.505 312.5,311C 313.126,311.75 313.626,312.584 314,313.5C 315.269,312.095 315.769,310.429 315.5,308.5C 307.678,308.834 304.844,305.167 307,297.5C 308.376,296.295 309.542,294.962 310.5,293.5 Z"/></g>
<g><path style="opacity:1" fill="#f6f2fb" d="M 328.5,293.5 C 333.833,293.5 339.167,293.5 344.5,293.5C 344.662,295.527 344.495,297.527 344,299.5C 341.785,302.596 340.119,305.929 339,309.5C 338.503,312.146 338.336,314.813 338.5,317.5C 335.833,317.5 333.167,317.5 330.5,317.5C 331.166,310.837 333.5,304.837 337.5,299.5C 337,299.167 336.5,298.833 336,298.5C 334.013,300.628 331.513,301.628 328.5,301.5C 328.5,298.833 328.5,296.167 328.5,293.5 Z"/></g>
<g><path style="opacity:1" fill="#f6f2fb" d="M 353.5,293.5 C 360.244,292.282 364.411,294.949 366,301.5C 368.25,310.152 365.25,315.819 357,318.5C 353.196,318.031 350.529,316.031 349,312.5C 348.333,308.167 348.333,303.833 349,299.5C 350.332,297.34 351.832,295.34 353.5,293.5 Z"/></g>
<g><path style="opacity:1" fill="#8a54ca" d="M 312.5,298.5 C 313.5,298.5 314.5,298.5 315.5,298.5C 315.799,300.604 315.466,302.604 314.5,304.5C 312.717,302.977 312.051,300.977 312.5,298.5 Z"/></g>
<g><path style="opacity:1" fill="#8952ca" d="M 355.5,298.5 C 356.5,298.5 357.5,298.5 358.5,298.5C 358.942,303.691 358.442,308.691 357,313.5C 355.558,308.691 355.058,303.691 355.5,298.5 Z"/></g>
<g><path style="opacity:1" fill="#c2a6e4" d="M 122.5,297.5 C 122.5,298.5 122.5,299.5 122.5,300.5C 124.621,300.675 126.621,300.341 128.5,299.5C 126.721,301.344 124.388,302.01 121.5,301.5C 121.232,299.901 121.566,298.568 122.5,297.5 Z"/></g>
<g><path style="opacity:1" fill="#c0a2e3" d="M 182.5,298.5 C 183.918,300.308 185.918,300.975 188.5,300.5C 186.393,301.468 184.059,301.802 181.5,301.5C 181.263,300.209 181.596,299.209 182.5,298.5 Z"/></g>
<g><path style="opacity:1" fill="#c0a2e3" d="M 225.5,298.5 C 226.918,300.308 228.918,300.975 231.5,300.5C 229.393,301.468 227.059,301.802 224.5,301.5C 224.263,300.209 224.596,299.209 225.5,298.5 Z"/></g>
<g><path style="opacity:1" fill="#fbfafd" d="M 154.5,305.5 C 158.167,305.5 161.833,305.5 165.5,305.5C 165.5,307.167 165.5,308.833 165.5,310.5C 161.833,310.5 158.167,310.5 154.5,310.5C 154.5,308.833 154.5,307.167 154.5,305.5 Z"/></g>
<g><path style="opacity:1" fill="#fbfafd" d="M 257.5,305.5 C 261.167,305.5 264.833,305.5 268.5,305.5C 268.5,307.167 268.5,308.833 268.5,310.5C 264.833,310.5 261.167,310.5 257.5,310.5C 257.5,308.833 257.5,307.167 257.5,305.5 Z"/></g>
<g><path style="opacity:1" fill="#844cc8" d="M 85.5,307.5 C 86.5,307.5 87.5,307.5 88.5,307.5C 87.5,315.5 86.5,315.5 85.5,307.5 Z"/></g>
<g><path style="opacity:1" fill="#7f45c6" d="M 296.5,310.5 C 296.157,312.225 295.157,312.725 293.5,312C 294.244,310.961 295.244,310.461 296.5,310.5 Z"/></g>
<g><path style="opacity:1" fill="#010101" d="M 436.5,394.5 C 436.5,405.167 436.5,415.833 436.5,426.5C 435.863,430.268 433.863,433.101 430.5,435C 425.845,435.499 421.179,435.666 416.5,435.5C 416.5,429.833 416.5,424.167 416.5,418.5C 418.415,418.784 420.081,418.451 421.5,417.5C 421.993,415.194 422.326,412.861 422.5,410.5C 420.167,410.5 417.833,410.5 415.5,410.5C 414.337,404.666 416.671,402 422.5,402.5C 422.5,400.167 422.5,397.833 422.5,395.5C 411.188,394.145 406.188,399.145 407.5,410.5C 405.5,410.5 403.5,410.5 401.5,410.5C 401.5,412.833 401.5,415.167 401.5,417.5C 403.265,418.461 405.265,418.795 407.5,418.5C 407.5,424.167 407.5,429.833 407.5,435.5C 402.821,435.666 398.155,435.499 393.5,435C 391,433.833 389.167,432 388,429.5C 387.333,416.833 387.333,404.167 388,391.5C 389.167,389 391,387.167 393.5,386C 405.833,385.333 418.167,385.333 430.5,386C 433.863,387.899 435.863,390.732 436.5,394.5 Z"/></g>
<g><path style="opacity:1" fill="#fafafa" d="M 421.5,417.5 C 419.5,417.5 417.5,417.5 415.5,417.5C 415.5,423.5 415.5,429.5 415.5,435.5C 413.167,435.5 410.833,435.5 408.5,435.5C 408.5,429.5 408.5,423.5 408.5,417.5C 406.167,417.5 403.833,417.5 401.5,417.5C 401.5,415.167 401.5,412.833 401.5,410.5C 403.5,410.5 405.5,410.5 407.5,410.5C 406.188,399.145 411.188,394.145 422.5,395.5C 422.5,397.833 422.5,400.167 422.5,402.5C 416.671,402 414.337,404.666 415.5,410.5C 417.833,410.5 420.167,410.5 422.5,410.5C 422.326,412.861 421.993,415.194 421.5,417.5 Z"/></g>
<g><path style="opacity:1" fill="#87abc5" d="M 436.5,394.5 C 437.483,398.298 437.817,402.298 437.5,406.5C 442.309,407.147 444.142,409.814 443,414.5C 442.878,412.563 442.045,411.23 440.5,410.5C 440.013,409.527 439.513,408.527 439,407.5C 438.503,409.81 438.337,412.143 438.5,414.5C 437.833,418.5 437.167,422.5 436.5,426.5C 436.5,415.833 436.5,405.167 436.5,394.5 Z"/></g>
<g><path style="opacity:1" fill="#232d33" d="M 440.5,410.5 C 439.833,411.833 439.167,413.167 438.5,414.5C 438.337,412.143 438.503,409.81 439,407.5C 439.513,408.527 440.013,409.527 440.5,410.5 Z"/></g>
<g><path style="opacity:1" fill="#566d7e" d="M 632.5,406.5 C 633.748,407.334 634.415,408.667 634.5,410.5C 634.167,411.833 633.833,413.167 633.5,414.5C 632.52,411.914 632.187,409.247 632.5,406.5 Z"/></g>
<g><path style="opacity:1" fill="#7493a9" d="M 657.5,410.5 C 657.013,409.527 656.513,408.527 656,407.5C 655.503,409.81 655.337,412.143 655.5,414.5C 654.527,412.052 654.194,409.385 654.5,406.5C 659.309,407.147 661.142,409.814 660,414.5C 659.878,412.563 659.045,411.23 657.5,410.5 Z"/></g>
<g><path style="opacity:1" fill="#232d33" d="M 657.5,410.5 C 656.833,411.833 656.167,413.167 655.5,414.5C 655.337,412.143 655.503,409.81 656,407.5C 656.513,408.527 657.013,409.527 657.5,410.5 Z"/></g>
<g><path style="opacity:1" fill="#425360" d="M 705.5,407.5 C 707.141,409.203 708.141,411.37 708.5,414C 707.167,414.667 705.833,414.667 704.5,414C 705.423,411.959 705.756,409.792 705.5,407.5 Z"/></g>
<g><path style="opacity:1" fill="#4a5d6b" d="M 711.5,407.5 C 713.199,407.34 714.866,407.506 716.5,408C 714.924,408.44 713.59,409.273 712.5,410.5C 711.614,409.675 711.281,408.675 711.5,407.5 Z"/></g>
<g><path style="opacity:1" fill="#5a7284" d="M 588.5,408.5 C 591.187,408.336 593.854,408.503 596.5,409C 597.76,410.814 597.76,412.647 596.5,414.5C 595.075,409.27 593.909,409.27 593,414.5C 592.091,409.27 590.925,409.27 589.5,414.5C 588.534,412.604 588.201,410.604 588.5,408.5 Z"/></g>
<g><path style="opacity:1" fill="#4d6170" d="M 669.5,408.5 C 670.919,407.549 672.585,407.216 674.5,407.5C 674.716,409.681 673.883,411.347 672,412.5C 671.508,411.451 671.674,410.451 672.5,409.5C 671.675,408.614 670.675,408.281 669.5,408.5 Z"/></g>
<g><path style="opacity:1" fill="#586f80" d="M 699.5,406.5 C 700.376,406.369 701.043,406.702 701.5,407.5C 700.624,408.251 699.624,408.751 698.5,409C 700.303,409.637 701.636,410.803 702.5,412.5C 701.034,414.657 699.2,414.99 697,413.5C 695.916,410.341 696.75,408.008 699.5,406.5 Z"/></g>
<g><path style="opacity:1" fill="#435562" d="M 748.5,408.5 C 749.919,407.549 751.585,407.216 753.5,407.5C 753.607,409.903 752.607,411.736 750.5,413C 751.5,413.333 752.5,413.667 753.5,414C 751.741,414.798 750.074,414.631 748.5,413.5C 749.5,412.167 750.5,410.833 751.5,409.5C 750.675,408.614 749.675,408.281 748.5,408.5 Z"/></g>
<g><path style="opacity:1" fill="#4f6473" d="M 770.5,408.5 C 772.035,407.212 773.701,407.212 775.5,408.5C 774.498,410.51 773.498,412.51 772.5,414.5C 771.777,412.836 772.11,411.169 773.5,409.5C 772.675,408.614 771.675,408.281 770.5,408.5 Z"/></g>
<g><path style="opacity:1" fill="#435562" d="M 792.5,408.5 C 793.919,407.549 795.585,407.216 797.5,407.5C 797.607,409.903 796.607,411.736 794.5,413C 795.5,413.333 796.5,413.667 797.5,414C 795.741,414.798 794.074,414.631 792.5,413.5C 793.5,412.167 794.5,410.833 795.5,409.5C 794.675,408.614 793.675,408.281 792.5,408.5 Z"/></g>
<g><path style="opacity:1" fill="#576e7f" d="M 455.5,408.5 C 459.908,408.062 461.575,410.062 460.5,414.5C 458.857,414.48 457.524,415.147 456.5,416.5C 455.52,413.914 455.187,411.247 455.5,408.5 Z"/></g>
<g><path style="opacity:1" fill="#4a5d6b" d="M 477.5,406.5 C 478.043,406.56 478.376,406.893 478.5,407.5C 477.236,410.125 476.069,412.792 475,415.5C 474.903,412.284 475.736,409.284 477.5,406.5 Z"/></g>
<g><path style="opacity:1" fill="#627c8f" d="M 604.5,408.5 C 607.567,408.016 609.567,409.182 610.5,412C 609.181,413.754 607.515,415.254 605.5,416.5C 604.52,413.914 604.187,411.247 604.5,408.5 Z"/></g>
<g><path style="opacity:1" fill="#617a8d" d="M 618.5,408.5 C 622.35,408.701 623.35,410.534 621.5,414C 620.207,414.49 618.873,414.657 617.5,414.5C 617.325,412.379 617.659,410.379 618.5,408.5 Z"/></g>
<g><path style="opacity:1" fill="#576e7f" d="M 662.5,408.5 C 666.908,408.062 668.575,410.062 667.5,414.5C 665.857,414.48 664.524,415.147 663.5,416.5C 662.52,413.914 662.187,411.247 662.5,408.5 Z"/></g>
<g><path style="opacity:1" fill="#2e3a43" d="M 735.5,407.5 C 738.063,409.417 738.563,411.75 737,414.5C 735.902,413.033 734.402,412.199 732.5,412C 733.386,410.385 734.386,408.885 735.5,407.5 Z"/></g>
<g><path style="opacity:1" fill="#41525f" d="M 742.5,407.5 C 744.141,409.203 745.141,411.37 745.5,414C 744.167,414.667 742.833,414.667 741.5,414C 742.423,411.959 742.756,409.792 742.5,407.5 Z"/></g>
<g><path style="opacity:1" fill="#435461" d="M 756.5,407.5 C 757.217,408.461 758.383,409.461 760,410.5C 760.667,411.5 760.667,412.5 760,413.5C 758.667,409.5 757.333,409.5 756,413.5C 755.322,411.402 755.489,409.402 756.5,407.5 Z"/></g>
<g><path style="opacity:1" fill="#485b6a" d="M 762.5,408.5 C 763.919,407.549 765.585,407.216 767.5,407.5C 767.459,410.805 766.125,412.971 763.5,414C 764.5,412.333 765.5,410.667 766.5,409C 765.207,408.51 763.873,408.343 762.5,408.5 Z"/></g>
<g><path style="opacity:1" fill="#4f6473" d="M 445.5,407.5 C 447.141,409.203 448.141,411.37 448.5,414C 447.552,414.483 446.552,414.649 445.5,414.5C 445.5,412.167 445.5,409.833 445.5,407.5 Z"/></g>
<g><path style="opacity:1" fill="#4f6473" d="M 450.5,407.5 C 452.141,409.203 453.141,411.37 453.5,414C 452.552,414.483 451.552,414.649 450.5,414.5C 450.5,412.167 450.5,409.833 450.5,407.5 Z"/></g>
<g><path style="opacity:1" fill="#4c606f" d="M 463.5,408.5 C 465.103,408.312 466.437,408.812 467.5,410C 463.624,409.651 463.624,410.484 467.5,412.5C 466.307,414.384 464.641,414.884 462.5,414C 463.5,413.667 464.5,413.333 465.5,413C 462.715,412.274 462.048,410.774 463.5,408.5 Z"/></g>
<g><path style="opacity:1" fill="#41515e" d="M 530.5,408.5 C 532.103,408.312 533.437,408.812 534.5,410C 531.659,408.988 530.326,410.155 530.5,413.5C 534.172,414.045 533.838,414.378 529.5,414.5C 529.325,412.379 529.659,410.379 530.5,408.5 Z"/></g>
<g><path style="opacity:1" fill="#394752" d="M 542.5,407.5 C 543.792,409.255 544.792,411.255 545.5,413.5C 546.987,408.343 547.653,408.676 547.5,414.5C 545.833,414.5 544.167,414.5 542.5,414.5C 542.5,412.167 542.5,409.833 542.5,407.5 Z"/></g>
<g><path style="opacity:1" fill="#3e4e5b" d="M 551.5,408.5 C 552.496,408.414 553.329,408.748 554,409.5C 554.494,411.134 554.66,412.801 554.5,414.5C 550.162,414.378 549.828,414.045 553.5,413.5C 553.5,412.5 553.5,411.5 553.5,410.5C 551.876,410.36 550.71,411.027 550,412.5C 549.516,410.807 550.016,409.473 551.5,408.5 Z"/></g>
<g><path style="opacity:1" fill="#3e4e5b" d="M 558.5,408.5 C 559.496,408.414 560.329,408.748 561,409.5C 561.494,411.134 561.66,412.801 561.5,414.5C 557.162,414.378 556.828,414.045 560.5,413.5C 560.5,412.5 560.5,411.5 560.5,410.5C 558.876,410.36 557.71,411.027 557,412.5C 556.516,410.807 557.016,409.473 558.5,408.5 Z"/></g>
<g><path style="opacity:1" fill="#4b5f6d" d="M 563.5,406.5 C 565.045,407.23 565.878,408.563 566,410.5C 566.718,409.549 567.551,409.383 568.5,410C 567.788,411.425 567.621,412.925 568,414.5C 566.684,411.972 565.517,411.972 564.5,414.5C 563.52,411.914 563.187,409.247 563.5,406.5 Z"/></g>
<g><path style="opacity:1" fill="#41515e" d="M 576.5,408.5 C 578.103,408.312 579.437,408.812 580.5,410C 577.659,408.988 576.326,410.155 576.5,413.5C 580.172,414.045 579.838,414.378 575.5,414.5C 575.325,412.379 575.659,410.379 576.5,408.5 Z"/></g>
<g><path style="opacity:1" fill="#1e262c" d="M 612.5,409.5 C 613.239,409.369 613.906,409.536 614.5,410C 613.119,416.02 612.453,415.853 612.5,409.5 Z"/></g>
<g><path style="opacity:1" fill="#556d7d" d="M 625.5,406.5 C 626.552,406.351 627.552,406.517 628.5,407C 627.004,409.201 626.004,411.701 625.5,414.5C 624.271,411.801 624.271,409.135 625.5,406.5 Z"/></g>
<g><path style="opacity:1" fill="#566d7d" d="M 683.5,406.5 C 685.369,408.635 686.036,411.302 685.5,414.5C 683.801,414.66 682.134,414.494 680.5,414C 679.978,413.439 679.645,412.772 679.5,412C 680.707,409.977 682.04,408.144 683.5,406.5 Z"/></g>
<g><path style="opacity:1" fill="#3c4b57" d="M 726.5,408.5 C 727.568,407.566 728.901,407.232 730.5,407.5C 730.5,409.833 730.5,412.167 730.5,414.5C 725.959,414.669 725.626,414.002 729.5,412.5C 728.289,411.28 728.289,410.113 729.5,409C 728.552,408.517 727.552,408.351 726.5,408.5 Z"/></g>
<g><path style="opacity:1" fill="#384651" d="M 485.5,409.5 C 486.802,410.807 488.135,410.807 489.5,409.5C 490.541,411.991 491.374,411.991 492,409.5C 492.52,411.289 492.187,412.956 491,414.5C 490.085,413.672 489.419,412.672 489,411.5C 488.751,412.624 488.251,413.624 487.5,414.5C 486.438,412.978 485.771,411.312 485.5,409.5 Z"/></g>
<g><path style="opacity:1" fill="#3e4f5b" d="M 504.5,409.5 C 505.222,409.918 505.722,410.584 506,411.5C 506.308,410.692 506.808,410.025 507.5,409.5C 508.833,409.833 510.167,410.167 511.5,410.5C 511.023,411.931 510.357,413.264 509.5,414.5C 508.483,411.972 507.316,411.972 506,414.5C 504.731,413.095 504.231,411.429 504.5,409.5 Z"/></g>
<g><path style="opacity:1" fill="#3c4c57" d="M 525.5,409.5 C 527.256,410.552 527.923,412.219 527.5,414.5C 525.833,414.5 524.167,414.5 522.5,414.5C 522.329,411.203 522.995,410.869 524.5,413.5C 525.429,412.311 525.762,410.978 525.5,409.5 Z"/></g>
<g><path style="opacity:1" fill="#4b5f6e" d="M 536.5,408.5 C 539.462,408.117 540.462,409.117 539.5,411.5C 538.808,410.975 538.308,410.308 538,409.5C 537.51,410.793 537.343,412.127 537.5,413.5C 538.552,413.351 539.552,413.517 540.5,414C 535.728,414.81 534.395,412.977 536.5,408.5 Z"/></g>
<g><path style="opacity:1" fill="#566d7d" d="M 601.5,407.5 C 602.298,410.692 601.465,413.692 599,416.5C 599.299,413.426 600.132,410.426 601.5,407.5 Z"/></g>
<g><path style="opacity:1" fill="#4b5f6e" d="M 637.5,408.5 C 640.462,408.117 641.462,409.117 640.5,411.5C 639.808,410.975 639.308,410.308 639,409.5C 638.51,410.793 638.343,412.127 638.5,413.5C 639.552,413.351 640.552,413.517 641.5,414C 636.728,414.81 635.395,412.977 637.5,408.5 Z"/></g>
<g><path style="opacity:1" fill="#41525f" d="M 787.5,408.5 C 788.472,407.249 789.139,407.582 789.5,409.5C 789.471,411.029 788.804,412.196 787.5,413C 788.5,413.333 789.5,413.667 790.5,414C 784.136,415.387 783.302,414.221 788,410.5C 788.692,409.563 788.525,408.897 787.5,408.5 Z"/></g>
<g><path style="opacity:1" fill="#3c4c58" d="M 494.5,409.5 C 495.94,410.363 497.274,410.363 498.5,409.5C 499.541,411.991 500.374,411.991 501,409.5C 501.798,411.259 501.631,412.926 500.5,414.5C 499.167,411.833 497.833,411.833 496.5,414.5C 495.438,412.978 494.771,411.312 494.5,409.5 Z"/></g>
<g><path style="opacity:1" fill="#3d4c58" d="M 648.5,409.5 C 649.161,410.718 649.828,412.051 650.5,413.5C 651.167,412.167 651.833,410.833 652.5,409.5C 652.833,410.167 653.167,410.833 653.5,411.5C 652.535,413.572 651.035,415.239 649,416.5C 648.503,414.19 648.337,411.857 648.5,409.5 Z"/></g>
<g><path style="opacity:1" fill="#33404a" d="M 714.5,411.5 C 714.56,410.957 714.893,410.624 715.5,410.5C 716.583,411.365 716.749,412.365 716,413.5C 715.722,412.584 715.222,411.918 714.5,411.5 Z"/></g>
<g><path style="opacity:1" fill="#485b6a" d="M 482.5,407.5 C 483.07,410.315 482.236,412.981 480,415.5C 480.494,412.815 481.327,410.148 482.5,407.5 Z"/></g>
<g><path style="opacity:1" fill="#708da3" d="M 582.5,408.5 C 586.314,408.651 587.981,410.651 587.5,414.5C 582.074,415.416 580.407,413.416 582.5,408.5 Z"/></g>
<g><path style="opacity:1" fill="#3e4e5a" d="M 719.5,407.5 C 723.893,407.457 724.226,407.957 720.5,409C 723.035,409.928 724.035,411.762 723.5,414.5C 717.676,414.653 717.343,413.987 722.5,412.5C 721.675,411.614 720.675,411.281 719.5,411.5C 719.5,410.167 719.5,408.833 719.5,407.5 Z"/></g>
<g><path style="opacity:1" fill="#4a5e6c" d="M 777.5,407.5 C 779.648,407.389 779.981,408.056 778.5,409.5C 780.007,410.739 781.174,410.405 782,408.5C 783.583,413.1 782.083,414.934 777.5,414C 781.19,413.576 781.357,412.742 778,411.5C 777.51,410.207 777.343,408.873 777.5,407.5 Z"/></g>
<g><path style="opacity:1" fill="#3b3b3b" d="M 421.5,417.5 C 420.081,418.451 418.415,418.784 416.5,418.5C 416.5,424.167 416.5,429.833 416.5,435.5C 416.167,435.5 415.833,435.5 415.5,435.5C 415.5,429.5 415.5,423.5 415.5,417.5C 417.5,417.5 419.5,417.5 421.5,417.5 Z"/></g>
<g><path style="opacity:1" fill="#030303" d="M 394.5,444.5 C 406.838,444.333 419.171,444.5 431.5,445C 435,445.833 437.167,448 438,451.5C 438.667,464.167 438.667,476.833 438,489.5C 436.833,492.667 434.667,494.833 431.5,496C 419.167,496.667 406.833,496.667 394.5,496C 392.376,494.878 390.543,493.378 389,491.5C 387.391,478.57 387.058,465.57 388,452.5C 389.277,449.062 391.443,446.395 394.5,444.5 Z"/></g>
<g><path style="opacity:1" fill="#f2f2f2" d="M 401.5,451.5 C 409.174,451.334 416.841,451.5 424.5,452C 428.307,453.14 430.807,455.64 432,459.5C 432.667,466.5 432.667,473.5 432,480.5C 431.394,483.548 429.894,486.048 427.5,488C 418.911,489.576 410.244,489.91 401.5,489C 398.417,488.214 396.251,486.381 395,483.5C 394.333,474.833 394.333,466.167 395,457.5C 396.494,454.686 398.66,452.686 401.5,451.5 Z"/></g>
<g><path style="opacity:1" fill="#0c0c0c" d="M 403.5,454.5 C 410.175,454.334 416.842,454.5 423.5,455C 424.931,455.465 426.097,456.299 427,457.5C 428.601,465.395 428.934,473.395 428,481.5C 427.535,482.931 426.701,484.097 425.5,485C 417.5,485.667 409.5,485.667 401.5,485C 399.741,483.992 398.574,482.492 398,480.5C 397.333,473.5 397.333,466.5 398,459.5C 399.352,457.251 401.185,455.584 403.5,454.5 Z"/></g>
<g><path style="opacity:1" fill="#f2f2f2" d="M 422.5,457.5 C 425.956,458.536 426.29,460.203 423.5,462.5C 421.296,461.218 420.962,459.551 422.5,457.5 Z"/></g>
<g><path style="opacity:1" fill="#445562" d="M 569.5,461.5 C 570.708,460.218 572.042,460.218 573.5,461.5C 572.443,461.906 571.109,461.906 569.5,461.5 Z"/></g>
<g><path style="opacity:1" fill="#3e4e5a" d="M 470.5,473.5 C 471.833,471.167 471.833,468.833 470.5,466.5C 472.164,467.949 472.998,469.949 473,472.5C 474,473.833 475,473.833 476,472.5C 476.41,464.281 472.576,461.114 464.5,463C 474.518,460.016 478.518,463.683 476.5,474C 474.455,474.49 472.455,474.323 470.5,473.5 Z"/></g>
<g><path style="opacity:1" fill="#f1f1f1" d="M 410.5,460.5 C 419.991,460.493 423.824,465.159 422,474.5C 416.045,482.486 410.045,482.486 404,474.5C 402.17,467.832 404.337,463.165 410.5,460.5 Z"/></g>
<g><path style="opacity:1" fill="#0b0b0b" d="M 410.5,464.5 C 415.658,463.331 418.658,465.331 419.5,470.5C 418.655,475.844 415.655,477.677 410.5,476C 405.266,472.124 405.266,468.291 410.5,464.5 Z"/></g>
<g><path style="opacity:1" fill="#2b363d" d="M 540.5,466.5 C 538.435,466.517 536.435,466.85 534.5,467.5C 535.134,466.053 536.301,465.387 538,465.5C 539.07,465.528 539.903,465.861 540.5,466.5 Z"/></g>
<g><path style="opacity:1" fill="#2a343c" d="M 557.5,466.5 C 555.435,466.517 553.435,466.85 551.5,467.5C 552.134,466.053 553.301,465.387 555,465.5C 556.07,465.528 556.903,465.861 557.5,466.5 Z"/></g>
<g><path style="opacity:1" fill="#4e6271" d="M 588.5,465.5 C 589.8,467.223 590.467,469.39 590.5,472C 590.167,474.167 589.833,476.333 589.5,478.5C 586.799,478.024 586.299,477.024 588,475.5C 588.498,472.183 588.665,468.85 588.5,465.5 Z"/></g>
<g><path style="opacity:1" fill="#2d3840" d="M 656.5,466.5 C 654.435,466.517 652.435,466.85 650.5,467.5C 651.134,466.053 652.301,465.387 654,465.5C 655.07,465.528 655.903,465.861 656.5,466.5 Z"/></g>
<g><path style="opacity:1" fill="#2b353c" d="M 686.5,466.5 C 684.435,466.517 682.435,466.85 680.5,467.5C 681.134,466.053 682.301,465.387 684,465.5C 685.07,465.528 685.903,465.861 686.5,466.5 Z"/></g>
<g><path style="opacity:1" fill="#aad7f8" d="M 557.5,466.5 C 558.614,467.885 559.614,469.385 560.5,471C 557.183,471.498 553.85,471.665 550.5,471.5C 550.833,470.167 551.167,468.833 551.5,467.5C 553.435,466.85 555.435,466.517 557.5,466.5 Z"/></g>
<g><path style="opacity:1" fill="#2a343c" d="M 569.5,461.5 C 569.461,462.583 569.127,463.583 568.5,464.5C 576.394,465.807 576.394,466.473 568.5,466.5C 568.666,470.514 568.499,474.514 568,478.5C 567.8,474.247 567.3,470.08 566.5,466C 567.053,464.122 568.053,462.622 569.5,461.5 Z"/></g>
<g><path style="opacity:1" fill="#4f6474" d="M 618.5,465.5 C 625.329,464.828 628.163,467.828 627,474.5C 625.309,478.213 622.475,479.379 618.5,478C 613.232,473.837 613.232,469.671 618.5,465.5 Z"/></g>
<g><path style="opacity:1" fill="#aad7f8" d="M 619.5,466.5 C 626.603,467.867 627.937,471.367 623.5,477C 616.947,477.763 614.781,474.93 617,468.5C 617.995,467.934 618.828,467.267 619.5,466.5 Z"/></g>
<g><path style="opacity:1" fill="#35434d" d="M 665.5,465.5 C 667.711,465.898 670.044,466.064 672.5,466C 670.579,466.36 668.912,467.194 667.5,468.5C 666.746,471.777 666.246,475.11 666,478.5C 665.501,474.179 665.334,469.846 665.5,465.5 Z"/></g>
<g><path style="opacity:1" fill="#a8d4f4" d="M 470.5,466.5 C 471.833,468.833 471.833,471.167 470.5,473.5C 466.527,472.925 465.527,470.758 467.5,467C 468.448,466.517 469.448,466.351 470.5,466.5 Z"/></g>
<g><path style="opacity:1" fill="#495c6a" d="M 484.5,465.5 C 487.346,465.03 489.679,465.863 491.5,468C 489.893,468.115 488.393,467.615 487,466.5C 484.5,467.333 484,468.833 485.5,471C 487.384,471.216 489.051,471.883 490.5,473C 487.706,473.174 485.206,472.34 483,470.5C 482.387,468.505 482.887,466.838 484.5,465.5 Z"/></g>
<g><path style="opacity:1" fill="#aad6f7" d="M 518.5,466.5 C 524.867,467.045 526.867,470.378 524.5,476.5C 522.565,477.15 520.565,477.483 518.5,477.5C 514.5,473.833 514.5,470.167 518.5,466.5 Z"/></g>
<g><path style="opacity:1" fill="#425360" d="M 540.5,466.5 C 542.686,466.511 543.519,467.511 543,469.5C 541.955,468.627 541.122,467.627 540.5,466.5 Z"/></g>
<g><path style="opacity:1" fill="#2d3840" d="M 557.5,466.5 C 560.292,467.392 561.625,469.392 561.5,472.5C 557.833,472.5 554.167,472.5 550.5,472.5C 549.167,472.167 549.167,471.833 550.5,471.5C 553.85,471.665 557.183,471.498 560.5,471C 559.614,469.385 558.614,467.885 557.5,466.5 Z"/></g>
<g><path style="opacity:1" fill="#495c6a" d="M 596.5,465.5 C 599.346,465.03 601.679,465.863 603.5,468C 601.893,468.115 600.393,467.615 599,466.5C 596.5,467.333 596,468.833 597.5,471C 599.384,471.216 601.051,471.883 602.5,473C 599.706,473.174 597.206,472.34 595,470.5C 594.387,468.505 594.887,466.838 596.5,465.5 Z"/></g>
<g><path style="opacity:1" fill="#586e7f" d="M 470.5,466.5 C 469.448,466.351 468.448,466.517 467.5,467C 465.527,470.758 466.527,472.925 470.5,473.5C 467.048,475.257 465.048,474.09 464.5,470C 465.048,465.91 467.048,464.743 470.5,466.5 Z"/></g>
<g><path style="opacity:1" fill="#586f81" d="M 534.5,467.5 C 533.735,470.096 533.401,472.763 533.5,475.5C 530.597,472.442 530.93,469.776 534.5,467.5 Z"/></g>
<g><path style="opacity:1" fill="#4f6473" d="M 632.5,465.5 C 642.346,464.373 645.679,468.706 642.5,478.5C 641.676,475.215 641.176,471.882 641,468.5C 638.756,466.006 636.423,466.006 634,468.5C 633.667,471.833 633.333,475.167 633,478.5C 632.501,474.179 632.334,469.846 632.5,465.5 Z"/></g>
<g><path style="opacity:1" fill="#60798b" d="M 656.5,466.5 C 659.138,467.242 660.471,469.075 660.5,472C 660.4,474.37 659.4,476.203 657.5,477.5C 657.167,477.333 656.833,477.167 656.5,477C 659.12,473.502 659.12,470.002 656.5,466.5 Z"/></g>
<g><path style="opacity:1" fill="#4e6372" d="M 500.5,477.5 C 502.936,477.683 505.103,477.016 507,475.5C 507.422,472.764 507.422,470.098 507,467.5C 509.954,470.116 510.287,473.116 508,476.5C 505.561,478.498 503.061,478.831 500.5,477.5 Z"/></g>
<g><path style="opacity:1" fill="#435460" d="M 518.5,466.5 C 520.817,465.058 522.984,465.392 525,467.5C 525.308,466.692 525.808,466.025 526.5,465.5C 527.833,469.833 527.833,474.167 526.5,478.5C 525.818,477.757 525.151,477.091 524.5,476.5C 526.867,470.378 524.867,467.045 518.5,466.5 Z"/></g>
<g><path style="opacity:1" fill="#556b7b" d="M 650.5,467.5 C 649.895,470.127 649.395,472.793 649,475.5C 646.664,472.193 647.164,469.527 650.5,467.5 Z"/></g>
<g><path style="opacity:1" fill="#556b7b" d="M 680.5,467.5 C 679.895,470.127 679.395,472.793 679,475.5C 676.664,472.193 677.164,469.527 680.5,467.5 Z"/></g>
<g><path style="opacity:1" fill="#465866" d="M 461.5,465.5 C 461.707,467.604 461.874,469.937 462,472.5C 464.949,477.69 468.949,478.69 474,475.5C 474.167,475.833 474.333,476.167 474.5,476.5C 463.779,480.447 459.445,476.781 461.5,465.5 Z"/></g>
<g><path style="opacity:1" fill="#435461" d="M 518.5,466.5 C 514.5,470.167 514.5,473.833 518.5,477.5C 515.475,476.967 514.142,475.133 514.5,472C 514.142,468.867 515.475,467.033 518.5,466.5 Z"/></g>
<g><path style="opacity:1" fill="#556c7c" d="M 551.5,467.5 C 551.167,468.833 550.833,470.167 550.5,471.5C 549.167,471.833 549.167,472.167 550.5,472.5C 550.5,473.5 550.5,474.5 550.5,475.5C 547.597,472.442 547.93,469.776 551.5,467.5 Z"/></g>
<g><path style="opacity:1" fill="#2c3840" d="M 500.5,477.5 C 499.504,477.586 498.671,477.252 498,476.5C 497.667,478.833 497.333,481.167 497,483.5C 496.333,477.5 496.333,471.5 497,465.5C 497.333,466.167 497.667,466.833 498,467.5C 498.718,466.549 499.551,466.383 500.5,467C 496.565,470.496 496.565,473.996 500.5,477.5 Z"/></g>
<g><path style="opacity:1" fill="#2f3c45" d="M 686.5,466.5 C 687.496,466.414 688.329,466.748 689,467.5C 689.333,466.833 689.667,466.167 690,465.5C 690.667,470.167 690.667,474.833 690,479.5C 689.667,478.5 689.333,477.5 689,476.5C 688.282,477.451 687.449,477.617 686.5,477C 690.435,473.504 690.435,470.004 686.5,466.5 Z"/></g>
<g><path style="opacity:1" fill="#455865" d="M 540.5,477.5 C 541.122,476.373 541.955,475.373 543,474.5C 543.519,476.489 542.686,477.489 540.5,477.5 Z"/></g>
<g><path style="opacity:1" fill="#445663" d="M 557.5,477.5 C 558.122,476.373 558.955,475.373 560,474.5C 560.519,476.489 559.686,477.489 557.5,477.5 Z"/></g>
<g><path style="opacity:1" fill="#2e3840" d="M 482.5,476.5 C 482.56,475.957 482.893,475.624 483.5,475.5C 485.22,476.934 487.22,477.767 489.5,478C 486.829,478.833 484.496,478.333 482.5,476.5 Z"/></g>
<g><path style="opacity:1" fill="#2b363e" d="M 524.5,476.5 C 523.866,477.947 522.699,478.613 521,478.5C 519.93,478.472 519.097,478.139 518.5,477.5C 520.565,477.483 522.565,477.15 524.5,476.5 Z"/></g>
<g><path style="opacity:1" fill="#303c44" d="M 533.5,475.5 C 535.588,476.939 537.921,477.606 540.5,477.5C 539.054,478.613 537.387,478.78 535.5,478C 534.244,477.583 533.577,476.75 533.5,475.5 Z"/></g>
<g><path style="opacity:1" fill="#323e48" d="M 550.5,475.5 C 552.588,476.939 554.921,477.606 557.5,477.5C 556.054,478.613 554.387,478.78 552.5,478C 551.244,477.583 550.577,476.75 550.5,475.5 Z"/></g>
<g><path style="opacity:1" fill="#2e3840" d="M 594.5,476.5 C 594.56,475.957 594.893,475.624 595.5,475.5C 597.22,476.934 599.22,477.767 601.5,478C 598.829,478.833 596.496,478.333 594.5,476.5 Z"/></g>
<g><path style="opacity:1" fill="#2e3942" d="M 678.5,479.5 C 680.768,481.465 683.435,482.632 686.5,483C 682.623,484.216 679.957,483.049 678.5,479.5 Z"/></g>
</svg>
